# xmcd
#
# Track frame offsets:
#  183
#  5118
#  23273
#  39115
#  70378
#  104855
#  133655
#  158405
#  174338
#  195995
#  214773
#
# Disc length: 3138 seconds
#
# Revision: 1
# Processed by: cddbd v1.5.1PL2 Copyright (c) Steve Scherf et al.
# Submitted via: Collectorz.com_Music_Collector 6.11
#
DISCID=870c400b
DTITLE=Lightnin' Hopkins - Forever
DYEAR=1992
DGENRE=Blues
TTITLE0=Intro
TTITLE1=Watch Yourself
TTITLE2=Houston Rock
TTITLE3=J.L. Williams - Baby Please Don't Go
TTITLE4=Pa' And Ma' Hopkins
TTITLE5=Mojo Hand
TTITLE6=Don't Let That Bad Sun Shines Down On Me
TTITLE7=Watch Yourself
TTITLE8=M. Jackson - Rock Me Baby
TTITLE9=Willie Dixon - J. Stone - My Babe
TTITLE10=R.M. Jones - Trouble In Mind
EXTD=
EXTT0=
EXTT1=
EXTT2=
EXTT3=
EXTT4=
EXTT5=
EXTT6=
EXTT7=
EXTT8=
EXTT9=
EXTT10=
PLAYORDER=
